<?xml version="1.0" standalone="no"?>
<!DOCTYPE svg PUBLIC "-//W3C//DTD SVG 20010904//EN" "http://www.w3.org/TR/2001/REC-SVG-20010904/DTD/svg10.dtd">
<svg version="1.0" xmlns="http://www.w3.org/2000/svg" width="2006.000000pt" height="467.000000pt"
    viewBox="0 0 2006.000000 467.000000" preserveAspectRatio="xMidYMid meet">

    <g transform="translate(0.000000,467.000000) scale(0.100000,-0.100000)" fill="#ffffff" stroke="none">
        <path d="M2685 4661 c-43 -11 -72 -28 -89 -53 -14 -19 -16 -69 -16 -333 l0
-311 28 -26 c15 -15 40 -32 55 -37 18 -7 179 -11 458 -11 466 0 475 1 517 55
21 27 22 35 22 327 0 335 -1 341 -67 374 -35 18 -69 19 -458 21 -231 1 -433
-2 -450 -6z" />
        <path d="M4015 4661 c-44 -11 -71 -27 -94 -57 -20 -26 -21 -38 -21 -321 0
-334 1 -341 73 -374 39 -17 71 -19 472 -19 405 0 433 2 473 20 71 32 73 44 70
385 -3 277 -4 294 -23 315 -50 55 -46 55 -500 57 -231 1 -433 -2 -450 -6z" />
        <path d="M8891 4660 c-71 -15 -166 -65 -210 -110 -22 -23 -53 -67 -67 -98 -24
-49 -28 -74 -32 -169 l-5 -113 -73 0 -74 0 0 -100 0 -100 75 0 75 0 0 -445 0
-445 135 0 135 0 2 443 3 442 143 3 142 3 0 99 0 100 -146 0 -147 0 5 85 c5
96 21 128 79 157 41 22 77 22 149 4 30 -8 57 -13 59 -10 9 9 49 209 43 215
-36 32 -212 55 -291 39z" />
        <path d="M6245 4576 c-250 -49 -390 -184 -402 -390 -9 -137 34 -241 130 -320
60 -49 122 -75 353 -151 176 -58 209 -72 248 -107 142 -124 34 -288 -190 -288
-82 0 -152 15 -244 53 -80 32 -197 102 -242 144 l-27 25 -60 -119 -60 -120 27
-26 c39 -36 133 -94 208 -127 307 -138 667 -108 846 71 108 108 143 275 92
432 -11 32 -36 70 -77 113 -74 80 -134 110 -387 194 -132 43 -199 71 -233 96
-104 76 -101 190 5 246 37 20 57 23 148 22 90 -1 118 -5 200 -32 52 -18 127
-49 167 -70 l71 -39 57 125 c46 100 55 126 44 134 -61 41 -192 94 -294 119
-105 26 -288 33 -380 15z" />
        <path d="M9370 4325 l0 -155 -80 0 -80 0 0 -100 0 -100 79 0 80 0 3 -332 3
-333 29 -64 c73 -157 265 -215 475 -141 46 16 90 35 97 42 10 10 7 31 -17 107
-16 52 -31 97 -33 99 -3 2 -32 -5 -65 -17 -69 -24 -104 -26 -150 -10 -58 20
-61 37 -61 359 l0 290 160 0 160 0 0 100 0 100 -160 0 -160 0 0 155 0 155
-140 0 -140 0 0 -155z" />
        <path d="M12460 4220 c-102 -10 -177 -32 -292 -87 l-97 -46 46 -91 c25 -50 47
-93 49 -95 2 -2 32 10 66 26 114 55 165 68 273 68 85 0 107 -4 148 -24 68 -33
100 -79 105 -152 l4 -59 -199 0 c-212 0 -265 -6 -355 -40 -293 -110 -266 -535
41 -630 44 -14 91 -20 155 -20 138 0 240 33 324 106 l42 36 0 -66 0 -66 135 0
135 0 0 373 c0 204 -5 401 -10 437 -14 87 -61 180 -113 225 -102 87 -264 125
-457 105z m299 -717 c-5 -100 -31 -138 -127 -185 -61 -30 -75 -33 -162 -33
-83 0 -100 3 -134 24 -70 44 -93 140 -49 207 15 24 75 51 128 57 17 2 101 5
189 6 l158 1 -3 -77z" />
        <path d="M13936 4219 c-112 -16 -211 -78 -288 -179 l-27 -35 -1 108 0 107
-135 0 -135 0 0 -570 0 -570 134 0 134 0 4 313 c5 367 7 378 97 468 64 63 118
87 224 96 l67 6 0 133 c0 74 -3 133 -7 133 -5 -1 -35 -5 -67 -10z" />
        <path d="M7570 4213 c-113 -19 -243 -88 -318 -167 -102 -110 -147 -233 -147
-406 1 -341 240 -570 595 -570 344 0 578 211 597 539 17 297 -151 530 -428
596 -59 14 -236 19 -299 8z m276 -258 c60 -29 111 -84 146 -154 19 -39 23 -62
23 -156 0 -91 -4 -118 -21 -156 -30 -64 -88 -125 -148 -157 -44 -22 -64 -26
-141 -27 -79 0 -97 3 -147 28 -101 49 -164 149 -175 274 -15 177 78 328 226
370 68 19 172 10 237 -22z" />
        <path d="M10169 4212 l-136 -3 207 -562 206 -562 144 0 143 0 122 365 c68 201
128 379 135 395 12 29 14 26 61 -115 27 -80 88 -259 135 -397 l86 -253 142 0
141 0 200 552 c110 303 201 560 203 570 3 17 -5 18 -133 16 l-137 -3 -74 -235
c-160 -504 -195 -612 -200 -608 -2 3 -64 193 -138 424 l-134 419 -133 3 c-73
1 -136 -1 -140 -5 -5 -5 -67 -194 -138 -422 -72 -227 -132 -416 -135 -418 -2
-3 -55 150 -116 339 -61 188 -123 378 -136 420 -14 43 -29 79 -32 80 -4 2 -68
2 -143 0z" />
        <path d="M14516 4204 c-148 -36 -285 -144 -350 -275 -142 -290 -45 -652 211
-787 226 -119 554 -86 732 74 l51 46 -72 77 -72 78 -50 -38 c-78 -60 -154 -84
-261 -84 -78 0 -97 4 -147 28 -69 34 -131 101 -157 171 l-19 51 420 3 421 2
-5 128 c-8 194 -59 325 -164 422 -51 47 -143 92 -222 109 -72 15 -244 12 -316
-5z m261 -209 c99 -29 173 -112 189 -213 l7 -42 -297 0 c-239 0 -296 3 -296
13 0 81 108 214 196 241 64 19 138 20 201 1z" />
        <path d="M73 3634 c-70 -35 -68 -23 -71 -361 -3 -337 -4 -334 61 -373 30 -19
54 -20 482 -20 434 0 451 1 483 20 58 36 62 58 62 365 0 320 -3 334 -72 365
-40 18 -68 20 -478 20 -375 0 -439 -3 -467 -16z" />
        <path d="M2661 3636 c-18 -6 -44 -24 -57 -40 l-24 -27 0 -284 0 -284 -42 -39
c-24 -22 -105 -94 -181 -161 l-138 -121 -408 0 c-436 0 -452 -2 -496 -50 -19
-21 -20 -39 -23 -329 -3 -304 -3 -308 19 -335 43 -55 53 -56 491 -56 l403 -1
188 -165 187 -165 0 -278 c0 -270 1 -279 22 -306 42 -54 51 -55 518 -55 459 0
472 1 515 50 19 21 20 36 20 335 0 299 -1 314 -20 335 -43 49 -55 50 -519 50
l-435 0 -156 137 -155 136 0 306 0 306 163 142 162 143 428 0 c464 0 473 1
515 55 21 27 22 35 22 322 0 334 -1 341 -73 374 -39 17 -70 19 -467 18 -309 0
-434 -4 -459 -13z" />
        <path d="M11100 2010 l0 -790 135 0 135 0 0 790 0 790 -135 0 -135 0 0 -790z" />
        <path d="M5880 1965 l0 -747 378 4 c433 5 460 9 632 95 267 134 419 428 380
739 -39 313 -238 541 -545 626 -74 20 -107 22 -462 26 l-383 4 0 -747z m725
480 c98 -21 171 -59 236 -125 98 -97 144 -217 141 -370 -2 -188 -89 -337 -243
-420 -89 -47 -167 -60 -381 -60 l-188 0 0 495 0 495 183 0 c122 0 205 -5 252
-15z" />
        <path d="M75 2666 c-16 -7 -39 -23 -50 -36 -19 -21 -20 -38 -23 -324 -2 -331
-2 -333 57 -373 l34 -23 446 0 c405 0 449 2 481 18 66 33 70 52 70 367 0 314
-3 332 -70 367 -32 17 -67 18 -475 18 -343 -1 -447 -4 -470 -14z" />
        <path d="M2645 2663 c-66 -34 -65 -26 -65 -368 0 -343 -1 -338 64 -369 30 -14
88 -16 476 -16 479 0 475 0 519 56 20 26 21 38 21 329 0 295 -1 303 -22 330
-42 54 -50 55 -525 55 -378 -1 -442 -3 -468 -17z" />
        <path d="M3975 2666 c-16 -7 -39 -23 -50 -36 -19 -21 -20 -38 -23 -324 -2
-331 -2 -333 57 -373 l34 -23 446 0 c405 0 449 2 481 18 66 33 70 52 70 367 0
314 -3 332 -70 367 -32 17 -67 18 -475 18 -343 -1 -447 -4 -470 -14z" />
        <path d="M19430 2465 l0 -155 -80 0 -80 0 0 -54 c0 -29 3 -74 6 -100 l7 -46
72 0 73 0 4 -322 c6 -366 10 -393 78 -471 104 -118 300 -141 478 -57 34 16 62
32 62 36 0 3 -14 50 -30 104 l-31 98 -47 -18 c-75 -28 -125 -33 -165 -16 -64
26 -67 40 -67 361 l0 285 160 0 160 0 0 100 0 100 -160 0 -160 0 0 155 0 155
-140 0 -140 0 0 -155z" />
        <path d="M7895 2360 c-290 -40 -485 -271 -485 -575 0 -276 164 -494 420 -556
79 -20 270 -17 349 5 88 24 188 76 245 128 l48 43 -72 77 -71 77 -63 -43 c-87
-59 -152 -80 -254 -79 -74 0 -90 4 -150 34 -74 38 -131 102 -156 177 l-15 42
420 0 419 0 0 101 c0 294 -130 494 -360 552 -74 19 -202 27 -275 17z m204
-226 c73 -21 144 -92 165 -165 29 -98 56 -89 -279 -89 -328 0 -307 -5 -280 71
57 160 219 235 394 183z" />
        <path d="M10205 2359 c-231 -35 -403 -190 -460 -414 -8 -34 -15 -103 -15 -160
0 -174 48 -302 154 -409 210 -214 626 -220 858 -13 l48 42 -76 78 -75 78 -37
-32 c-104 -92 -284 -120 -415 -65 -71 29 -144 116 -171 204 l-7 22 420 0 421
0 0 79 c0 181 -53 348 -143 447 -51 57 -136 106 -218 128 -74 19 -211 27 -284
15z m253 -244 c76 -41 121 -108 135 -197 l6 -38 -299 0 -298 0 8 34 c22 100
102 193 189 221 29 9 75 14 126 12 66 -3 90 -8 133 -32z" />
        <path d="M12118 2359 c-237 -32 -417 -188 -475 -412 -21 -81 -21 -233 1 -315
40 -157 141 -284 280 -352 186 -92 416 -91 606 1 88 44 187 143 228 230 111
233 72 516 -93 685 -127 129 -337 192 -547 163z m211 -245 c75 -22 160 -107
191 -189 29 -78 25 -224 -7 -296 -30 -66 -86 -124 -151 -156 -48 -24 -70 -28
-137 -28 -172 1 -288 103 -317 280 -21 128 26 267 114 338 77 62 201 83 307
51z" />
        <path d="M13665 2364 c-114 -18 -200 -60 -269 -134 l-46 -49 0 89 0 90 -140 0
-140 0 0 -775 0 -775 140 0 140 0 0 294 0 295 52 -55 c161 -170 471 -178 674
-16 68 53 128 145 160 245 24 72 27 98 27 212 0 113 -3 140 -26 211 -59 180
-179 300 -347 348 -60 16 -177 27 -225 20z m144 -258 c60 -32 117 -94 147
-159 24 -54 28 -74 28 -152 -1 -115 -26 -186 -93 -254 -81 -83 -206 -112 -328
-76 -68 20 -144 89 -180 163 -25 51 -28 67 -28 162 0 92 3 112 26 161 33 69
86 124 153 156 45 21 62 24 146 20 66 -2 105 -9 129 -21z" />
        <path d="M15064 2355 c-108 -23 -198 -82 -262 -170 l-21 -30 -1 103 0 102
-135 0 -135 0 0 -570 0 -570 134 0 135 0 4 323 c2 212 8 334 16 359 21 65 73
131 130 165 133 79 297 42 361 -82 l25 -49 3 -358 3 -358 139 0 139 0 3 338
c3 330 4 338 26 384 55 109 141 162 263 163 67 0 81 -3 125 -30 30 -19 60 -49
79 -79 l30 -49 3 -364 3 -363 139 0 140 0 0 384 c0 213 -4 407 -10 436 -35
187 -170 309 -358 326 -185 16 -355 -63 -434 -203 -16 -29 -32 -53 -34 -53 -2
0 -15 24 -30 54 -78 161 -270 237 -480 191z" />
        <path d="M17095 2359 c-166 -25 -308 -114 -394 -247 -16 -26 -42 -83 -57 -127
-23 -68 -27 -97 -27 -190 0 -71 5 -132 16 -172 39 -148 134 -273 255 -336 109
-57 170 -71 312 -72 111 0 135 3 213 29 93 30 183 82 232 135 l29 31 -74 75
c-73 74 -74 74 -95 56 -35 -32 -98 -67 -150 -84 -149 -46 -279 -20 -374 75
-32 32 -81 120 -81 145 0 10 93 13 418 15 l417 3 -2 108 c-5 190 -53 326 -150
423 -107 107 -304 161 -488 133z m207 -225 c92 -31 178 -138 178 -221 l0 -33
-296 0 -296 0 7 33 c20 92 105 191 188 221 56 19 163 20 219 0z" />
        <path d="M18550 2359 c-108 -18 -213 -84 -278 -174 l-21 -30 -1 103 0 102
-140 0 -140 0 0 -570 0 -570 140 0 140 0 0 307 c0 347 6 385 69 469 24 33 56
59 95 79 51 25 70 30 135 29 58 0 86 -5 117 -22 56 -29 109 -93 123 -147 7
-28 11 -168 11 -379 l0 -336 140 0 140 0 0 383 c0 407 -6 471 -50 557 -81 159
-263 234 -480 199z" />
        <path d="M8560 2353 c0 -3 98 -260 217 -570 l217 -563 143 0 c79 0 143 1 143
3 0 2 97 257 215 567 118 309 215 564 215 566 0 2 -62 4 -138 4 l-138 0 -144
-429 c-80 -236 -148 -424 -152 -418 -3 5 -71 198 -150 428 l-143 419 -142 0
c-79 0 -143 -3 -143 -7z" />
        <path d="M70 1692 c-66 -32 -70 -52 -70 -365 0 -318 3 -333 69 -366 39 -20 56
-21 466 -21 l427 0 164 -146 164 -145 0 -278 c0 -267 1 -279 21 -305 44 -56
40 -56 519 -56 388 0 446 2 476 16 62 30 64 40 64 373 l0 299 -26 31 c-14 17
-42 35 -62 41 -23 6 -203 10 -463 10 l-427 0 -143 126 c-79 69 -150 133 -157
142 -9 12 -12 88 -12 300 0 184 -4 290 -11 304 -6 11 -29 28 -52 39 -39 17
-71 19 -477 18 -389 0 -439 -2 -470 -17z" />
        <path d="M1354 1691 c-65 -39 -64 -35 -64 -367 0 -290 1 -302 21 -328 44 -56
40 -56 519 -56 385 0 445 2 473 16 68 34 67 26 67 369 0 343 1 338 -64 369
-30 14 -88 16 -478 16 -418 0 -445 -1 -474 -19z" />
        <path d="M3975 1696 c-16 -7 -39 -23 -50 -36 -19 -21 -20 -36 -20 -335 0 -299
1 -314 20 -335 43 -49 55 -50 522 -50 397 0 441 2 473 18 66 33 70 52 70 367
0 315 -4 334 -70 367 -32 16 -76 18 -475 18 -343 -1 -447 -4 -470 -14z" />
        <path d="M2660 769 c-14 -6 -37 -22 -52 -36 l-28 -27 0 -311 c0 -342 -1 -338
63 -373 29 -15 72 -17 472 -17 411 0 443 1 478 19 66 33 67 39 67 374 0 292
-1 300 -22 327 -42 54 -50 55 -520 54 -262 0 -443 -4 -458 -10z" />
        <path d="M3973 761 c-72 -33 -73 -40 -73 -374 0 -283 1 -295 21 -321 49 -62
41 -61 524 -61 476 0 470 -1 520 55 19 21 20 38 23 315 3 341 1 353 -70 385
-40 18 -68 20 -473 20 -401 0 -433 -2 -472 -19z" />
        <path d="M7602 660 c-87 -19 -132 -65 -132 -138 0 -48 36 -97 86 -118 18 -8
84 -25 147 -38 136 -30 166 -42 173 -72 9 -37 1 -57 -33 -80 -40 -27 -109 -38
-177 -29 -89 12 -132 46 -142 111 -6 42 -8 44 -40 44 -32 0 -34 -2 -34 -34 0
-111 81 -175 230 -184 110 -6 189 15 237 63 29 29 33 40 33 83 0 40 -6 57 -26
82 -34 40 -73 55 -203 81 -127 25 -169 43 -177 75 -15 60 39 94 151 94 108 0
145 -18 165 -82 14 -45 17 -48 49 -48 33 0 34 0 28 40 -13 98 -84 149 -215
155 -42 2 -96 0 -120 -5z" />
        <path d="M5900 390 l0 -270 35 0 35 0 0 192 c0 121 4 188 9 182 10 -9 114
-198 176 -316 25 -49 34 -58 57 -58 19 0 30 8 40 27 8 16 54 102 104 193 l89
165 3 -193 2 -192 35 0 35 0 0 271 0 270 -37 -3 -38 -3 -115 -212 c-101 -188
-117 -211 -128 -195 -11 14 -82 144 -198 360 -26 49 -30 52 -66 52 l-38 0 0
-270z" />
        <path d="M6866 453 c-57 -115 -118 -235 -135 -268 -17 -33 -31 -61 -31 -62 0
-2 18 -3 40 -3 40 0 40 0 80 80 l40 80 138 0 137 0 37 -80 37 -80 40 0 40 0
-76 158 c-41 86 -100 208 -129 270 -51 106 -55 112 -84 112 -29 0 -33 -7 -134
-207z m184 -3 l50 -100 -100 0 c-55 0 -100 2 -100 5 0 7 94 195 97 195 2 0 25
-45 53 -100z" />
        <path d="M8140 630 l0 -29 103 -3 102 -3 3 -237 2 -238 35 0 35 0 0 240 0 240
105 0 105 0 0 30 0 30 -245 0 -245 0 0 -30z" />
        <path d="M8820 390 l0 -270 225 0 225 0 0 35 0 35 -190 0 -190 0 0 90 0 90
165 0 165 0 0 35 0 35 -165 0 -165 0 0 80 0 80 185 0 185 0 0 30 0 30 -220 0
-220 0 0 -270z" />
        <path d="M9470 390 l0 -270 35 0 35 0 0 115 0 115 128 0 c101 0 134 -4 162
-18 40 -20 48 -40 49 -139 l1 -73 35 0 35 0 0 85 c0 88 -14 139 -44 164 -16
13 -15 16 9 41 51 54 51 155 1 205 -37 36 -88 45 -273 45 l-173 0 0 -270z
m377 184 c31 -23 41 -70 23 -104 -20 -38 -69 -50 -205 -50 l-125 0 0 83 c0 46
3 87 8 91 4 4 66 6 139 4 115 -3 135 -6 160 -24z" />
        <path d="M10190 391 l0 -271 35 0 35 0 0 193 0 192 29 -50 c15 -27 63 -114
106 -193 105 -194 97 -195 229 50 l101 187 3 -190 2 -189 40 0 40 0 0 270 0
270 -39 0 -39 0 -112 -207 c-62 -115 -116 -212 -120 -216 -4 -5 -59 88 -123
205 -115 213 -115 213 -151 216 l-36 3 0 -270z" />
        <path d="M11040 390 l0 -270 35 0 35 0 0 270 0 270 -35 0 -35 0 0 -270z" />
        <path d="M11350 390 l0 -270 35 0 35 0 2 212 3 213 185 -213 c170 -195 188
-212 218 -212 l32 0 0 270 0 270 -35 0 -35 0 0 -205 c0 -113 -3 -205 -7 -204
-5 0 -32 28 -62 62 -303 347 -303 347 -338 347 l-33 0 0 -270z" />
        <path d="M12100 389 l0 -272 143 6 c166 6 225 21 286 74 61 52 81 100 81 198
0 135 -55 217 -166 251 -32 9 -96 14 -196 14 l-148 0 0 -271z m299 200 c92
-21 140 -86 141 -191 0 -70 -12 -103 -53 -146 -42 -44 -109 -62 -224 -62 l-93
0 0 205 0 205 93 0 c50 0 112 -5 136 -11z" />
    </g>
</svg>